<?xml version="1.0" standalone="no"?>
<!DOCTYPE svg PUBLIC "-//W3C//DTD SVG 20010904//EN"
 "http://www.w3.org/TR/2001/REC-SVG-20010904/DTD/svg10.dtd">
<svg version="1.0" xmlns="http://www.w3.org/2000/svg"
 width="512.000000pt" height="512.000000pt" viewBox="0 0 512.000000 512.000000"
 preserveAspectRatio="xMidYMid meet">
<metadata>
Created by potrace 1.14, written by Peter Selinger 2001-2017
</metadata>
<g transform="translate(0.000000,512.000000) scale(0.100000,-0.100000)"
fill="#000000" stroke="none">
<path d="M2377 5104 c-1 -2 -18 -5 -37 -8 -133 -17 -320 -70 -403 -113 -63
-33 -149 -107 -214 -183 -12 -14 -44 -45 -71 -69 -69 -60 -88 -114 -108 -306
-8 -81 -8 -279 0 -346 6 -46 6 -46 -33 -63 -35 -16 -51 -35 -64 -76 -3 -9 -38
-25 -83 -39 -195 -58 -454 -154 -528 -195 -136 -76 -205 -131 -245 -196 -60
-97 -159 -288 -179 -345 -46 -132 -72 -230 -72 -269 1 -93 69 -279 117 -320
27 -24 27 -25 10 -38 -25 -19 -55 -110 -51 -156 1 -20 5 -77 8 -127 4 -51 15
-112 25 -140 72 -186 68 -174 76 -247 7 -63 47 -114 105 -133 35 -12 55 -25
65 -44 17 -34 87 -63 143 -60 33 2 47 -3 77 -30 31 -27 43 -32 68 -27 16 3 40
17 52 30 23 25 41 26 151 11 48 -7 52 -6 78 25 15 18 46 42 69 54 39 19 43 26
56 81 9 38 22 65 35 75 53 36 146 149 191 228 l49 88 68 -46 c39 -26 70 -55
74 -67 3 -13 9 -23 13 -23 19 0 31 -54 24 -103 -14 -109 -4 -250 22 -314 17
-41 122 -203 131 -203 4 0 1 7 -6 15 -16 20 -5 19 33 -2 52 -29 58 -35 48 -47
-15 -19 -19 -82 -6 -112 11 -25 95 -122 95 -109 0 2 15 -4 33 -14 17 -10 31
-25 29 -32 -2 -8 0 -11 4 -6 10 10 44 -22 44 -42 0 -13 2 -13 9 -2 9 15 14 10
38 -39 l13 -25 -5 25 c-3 14 -2 19 1 12 3 -6 9 -10 13 -7 14 8 66 -39 65 -60
0 -11 8 -37 18 -58 l19 -38 -31 -29 c-16 -15 -30 -33 -30 -40 0 -6 -5 -8 -10
-5 -6 4 -8 11 -5 16 4 5 1 9 -4 9 -17 0 -13 -15 8 -34 20 -18 42 -14 40 7 0 9
-2 9 -6 0 -8 -21 -22 -15 -16 7 3 12 8 19 11 16 2 -3 13 6 24 19 22 28 41 33
31 9 -5 -13 -2 -15 15 -9 14 4 22 2 22 -5 0 -6 -6 -8 -12 -4 -14 8 30 -46 47
-58 5 -4 7 -10 3 -13 -3 -4 -16 4 -27 17 -19 19 -23 20 -31 8 -13 -20 -12 -26
5 -43 13 -13 13 -16 0 -27 -12 -10 -15 -9 -15 4 0 9 -5 16 -10 16 -7 0 -7 -6
0 -20 9 -17 14 -18 30 -7 24 14 25 21 4 41 -8 9 -13 20 -9 26 8 12 44 -22 36
-35 -2 -5 4 -3 15 5 10 8 21 15 22 16 2 2 -10 15 -27 31 -23 21 -29 32 -21 43
9 13 10 13 10 -1 0 -10 11 -15 35 -16 19 -1 35 3 35 9 0 5 -6 6 -12 2 -10 -6
-10 -4 0 8 15 19 22 49 23 105 1 24 5 40 10 37 5 -3 9 0 9 5 0 6 -4 11 -8 11
-5 0 -9 7 -9 15 0 8 4 15 9 15 5 0 6 4 3 10 -3 6 1 7 9 4 19 -7 21 -20 4 -28
-10 -5 -10 -7 -1 -12 9 -4 9 -13 2 -31 -5 -13 -7 -29 -3 -34 3 -5 -1 -9 -8 -9
-10 0 -10 -2 1 -9 8 -5 16 -19 18 -31 7 -47 53 -62 85 -27 12 13 17 14 20 5 4
-10 10 -10 29 -2 19 9 29 9 42 -1 9 -6 14 -15 10 -18 -3 -4 -1 -7 5 -7 19 0
14 16 -10 33 l-23 15 25 24 c14 14 36 39 49 55 13 17 30 29 38 26 7 -3 13 0
13 5 0 6 12 9 27 6 35 -7 38 -10 24 -28 -10 -12 -9 -20 4 -38 15 -20 16 -20
10 -3 -11 32 -11 37 1 42 10 3 14 -9 15 -52 0 -16 2 -17 9 -5 5 8 5 21 -1 32
-5 10 -7 18 -3 18 4 0 -1 9 -11 20 -29 32 1 23 35 -10 16 -16 30 -24 30 -17 0
7 -20 26 -46 42 -46 29 -70 53 -42 42 10 -3 15 0 14 11 -1 10 8 18 22 20 12 2
22 8 22 13 0 6 -6 7 -12 3 -9 -5 -9 -2 1 9 7 9 20 17 27 17 8 0 14 5 14 11 0
5 5 7 12 3 6 -4 8 -3 4 4 -3 6 6 23 20 39 14 15 40 48 58 73 26 38 31 54 31
102 -1 37 3 58 11 58 20 0 102 48 131 77 56 55 87 106 129 211 17 45 16 110
-6 217 -6 28 -13 82 -16 120 -7 94 -9 98 -34 85 -11 -6 -20 -8 -20 -5 0 9 20
27 60 55 19 13 54 43 78 67 l42 43 0 -38 c0 -45 25 -135 43 -154 13 -14 18
-24 63 -98 15 -25 37 -57 50 -72 13 -16 22 -41 22 -60 0 -18 2 -40 4 -48 4
-20 57 -100 66 -101 48 -5 75 -13 119 -35 40 -20 67 -26 122 -26 48 0 71 -4
71 -12 0 -7 10 -23 21 -35 31 -33 96 -25 150 18 27 23 53 34 87 37 69 8 85 19
115 82 15 31 37 77 51 101 13 24 22 51 19 60 -2 9 8 34 23 56 15 22 44 76 65
119 22 44 42 82 46 85 25 19 35 42 24 55 -12 14 -10 24 44 166 20 54 28 211
14 266 -6 21 -31 80 -55 131 -38 79 -50 96 -87 118 -24 14 -51 25 -60 25 -10
0 -17 3 -17 8 -1 4 -3 69 -5 144 -4 153 -10 181 -62 284 -44 89 -111 167 -172
200 -67 37 -146 87 -210 135 -49 37 -126 70 -194 83 -12 2 -56 13 -97 24 -97
26 -338 72 -378 72 -19 0 -32 5 -33 13 0 6 -1 53 -2 103 -2 100 -13 124 -56
124 -69 0 -68 -2 -75 153 -11 231 -11 321 -3 334 5 6 2 24 -7 41 -12 22 -12
32 -3 41 9 9 4 18 -21 37 -18 14 -43 47 -57 72 -35 70 -155 186 -228 224 -55
28 -177 75 -217 83 -8 2 -35 8 -58 15 -37 9 -286 13 -295 4z m588 -4094 c8
-13 -5 -13 -25 0 -13 8 -13 10 2 10 9 0 20 -4 23 -10z"/>
<path d="M2820 5086 c0 -2 8 -10 18 -17 15 -13 16 -12 3 4 -13 16 -21 21 -21
13z"/>
<path d="M3106 1160 c6 -8 10 -23 8 -33 -1 -11 0 -16 3 -13 4 3 13 0 22 -6 12
-10 12 -7 -2 8 -9 11 -15 23 -12 26 3 3 -3 11 -12 19 -16 12 -17 12 -7 -1z"/>
<path d="M2075 1151 c-3 -5 -2 -12 3 -15 5 -3 9 1 9 9 0 17 -3 19 -12 6z"/>
<path d="M2136 1122 c-3 -5 1 -9 9 -9 8 0 12 4 9 9 -3 4 -7 8 -9 8 -2 0 -6 -4
-9 -8z"/>
<path d="M3230 1120 c0 -5 5 -10 11 -10 5 0 7 5 4 10 -3 6 -8 10 -11 10 -2 0
-4 -4 -4 -10z"/>
<path d="M2185 1100 c-3 -6 1 -7 9 -4 18 7 21 14 7 14 -6 0 -13 -4 -16 -10z"/>
<path d="M3196 1093 c-6 -14 -5 -15 5 -6 7 7 10 15 7 18 -3 3 -9 -2 -12 -12z"/>
<path d="M3072 1091 c-11 -7 -11 -9 0 -14 9 -3 15 1 15 9 0 8 -1 14 -1 14 -1
0 -7 -4 -14 -9z"/>
<path d="M3108 1093 c7 -3 16 -2 19 1 4 3 -2 6 -13 5 -11 0 -14 -3 -6 -6z"/>
<path d="M2110 1081 c0 -6 4 -12 8 -15 5 -3 9 1 9 9 0 8 -4 15 -9 15 -4 0 -8
-4 -8 -9z"/>
<path d="M3230 1086 c0 -2 7 -7 16 -10 8 -3 12 -2 9 4 -6 10 -25 14 -25 6z"/>
<path d="M3453 1065 c0 -8 4 -12 9 -9 5 3 6 10 3 15 -9 13 -12 11 -12 -6z"/>
<path d="M2054 1058 c-4 -7 -4 -10 1 -6 4 4 15 2 24 -5 14 -11 14 -10 2 6 -16
20 -18 21 -27 5z"/>
<path d="M2145 1059 c-3 -4 2 -6 10 -5 21 3 28 13 10 13 -9 0 -18 -4 -20 -8z"/>
<path d="M3030 1060 c0 -5 5 -10 10 -10 6 0 10 5 10 10 0 6 -4 10 -10 10 -5 0
-10 -4 -10 -10z"/>
<path d="M3095 1060 c-3 -6 1 -7 9 -4 18 7 21 14 7 14 -6 0 -13 -4 -16 -10z"/>
<path d="M3265 1059 c-3 -4 2 -6 10 -5 21 3 28 13 10 13 -9 0 -18 -4 -20 -8z"/>
<path d="M3415 1061 c-3 -5 -2 -12 3 -15 5 -3 9 1 9 9 0 17 -3 19 -12 6z"/>
<path d="M2242 1040 c-18 -29 -15 -38 4 -12 9 13 14 25 12 27 -2 2 -9 -5 -16
-15z"/>
<path d="M2281 1033 c-5 -10 -13 -16 -18 -13 -4 3 -9 -6 -10 -20 -1 -22 -1
-23 4 -2 2 12 8 20 13 17 5 -3 14 4 20 15 13 24 5 27 -9 3z"/>
<path d="M2995 1039 c-4 -6 -4 -13 -1 -16 3 -4 6 -1 6 5 0 7 4 12 10 12 5 0 7
-8 3 -17 -5 -14 -3 -15 7 -6 7 6 9 16 6 22 -9 14 -23 14 -31 0z"/>
<path d="M3044 1025 c-16 -24 -16 -27 2 -40 10 -7 21 -11 23 -9 3 2 -4 10 -14
18 -17 12 -17 14 3 34 12 12 18 22 12 22 -5 0 -17 -11 -26 -25z"/>
<path d="M3115 1040 c3 -5 8 -10 11 -10 2 0 4 5 4 10 0 6 -5 10 -11 10 -5 0
-7 -4 -4 -10z"/>
<path d="M3220 1045 c0 -2 6 -8 13 -14 10 -8 14 -7 14 2 0 8 -6 14 -14 14 -7
0 -13 -1 -13 -2z"/>
<path d="M3313 1036 c-3 -6 -3 -8 2 -4 4 4 13 3 20 -2 8 -7 12 -5 12 3 0 16
-25 18 -34 3z"/>
<path d="M3095 1030 c6 -10 4 -12 -9 -7 -9 4 -15 3 -11 -2 3 -5 0 -11 -7 -13
-7 -3 -4 -7 7 -12 11 -4 16 -4 12 0 -4 4 1 12 10 19 13 9 13 14 3 20 -9 6 -11
4 -5 -5z"/>
<path d="M3139 1023 c-1 -5 -1 -12 0 -17 1 -5 -6 -5 -16 -2 -9 4 -14 4 -10 0
4 -4 -2 -13 -13 -21 -21 -15 -28 -37 -9 -31 6 2 9 7 7 12 -2 4 7 13 19 19 12
7 22 17 22 22 0 6 10 13 23 17 l23 6 -22 1 c-13 1 -24 -2 -24 -6z"/>
<path d="M3198 1023 c7 -3 16 -2 19 1 4 3 -2 6 -13 5 -11 0 -14 -3 -6 -6z"/>
<path d="M3271 1009 c5 -10 12 -19 15 -19 3 0 3 4 0 9 -4 5 -1 11 6 13 7 3 3
7 -10 10 -19 5 -20 4 -11 -13z"/>
<path d="M3426 1022 c-3 -5 1 -9 9 -9 8 0 12 4 9 9 -3 4 -7 8 -9 8 -2 0 -6 -4
-9 -8z"/>
<path d="M2345 1008 c4 -11 2 -18 -4 -18 -6 0 -11 -5 -11 -12 0 -8 6 -6 17 5
14 14 15 19 4 29 -10 11 -11 10 -6 -4z"/>
<path d="M3510 1016 c0 -2 8 -10 18 -17 15 -13 16 -12 3 4 -13 16 -21 21 -21
13z"/>
<path d="M2125 1000 c-3 -6 1 -7 9 -4 18 7 21 14 7 14 -6 0 -13 -4 -16 -10z"/>
<path d="M2205 1000 c-3 -5 -1 -10 4 -10 6 0 11 5 11 10 0 6 -2 10 -4 10 -3 0
-8 -4 -11 -10z"/>
<path d="M2283 995 c-19 -21 -16 -27 7 -13 11 7 20 16 20 20 0 12 -14 9 -27
-7z"/>
<path d="M3172 993 c2 -12 12 -18 26 -17 16 1 22 -3 18 -13 -3 -8 -2 -12 3 -9
5 3 12 -1 15 -10 3 -8 10 -12 16 -9 5 3 10 1 10 -5 0 -6 -12 -15 -26 -21 -15
-5 -24 -12 -21 -16 9 -8 59 26 55 38 -2 6 -7 9 -12 7 -4 -2 -14 9 -22 24 -10
19 -20 26 -35 23 -15 -3 -19 0 -15 10 3 8 1 15 -5 15 -6 0 -9 -8 -7 -17z"/>
<path d="M3231 993 c7 -12 15 -20 18 -17 3 2 -3 12 -13 22 -17 16 -18 16 -5
-5z"/>
<path d="M3570 999 c0 -5 5 -7 10 -4 6 3 10 8 10 11 0 2 -4 4 -10 4 -5 0 -10
-5 -10 -11z"/>
<path d="M2149 983 c-13 -16 -12 -17 4 -4 16 13 21 21 13 21 -2 0 -10 -8 -17
-17z"/>
<path d="M2370 991 c0 -5 5 -13 10 -16 6 -3 10 -2 10 4 0 5 -4 13 -10 16 -5 3
-10 2 -10 -4z"/>
<path d="M3355 989 c-4 -6 -5 -12 -2 -15 2 -3 7 2 10 11 7 17 1 20 -8 4z"/>
<path d="M3475 970 c1 -16 5 -33 10 -37 4 -5 4 -2 0 6 -6 11 -4 13 10 7 18 -6
18 -6 3 11 -9 10 -17 22 -16 26 0 5 -2 10 -4 13 -3 2 -4 -10 -3 -26z"/>
<path d="M2187 969 c4 -13 8 -18 11 -10 2 7 -1 18 -6 23 -8 8 -9 4 -5 -13z"/>
<path d="M3150 983 c0 -6 8 -17 18 -24 16 -13 16 -13 2 6 -8 11 -16 22 -17 24
-2 2 -3 0 -3 -6z"/>
<path d="M3397 977 c4 -7 -1 -8 -13 -3 -10 4 -15 4 -11 0 4 -4 -1 -13 -11 -21
-12 -10 -9 -10 15 1 36 18 49 33 28 33 -8 0 -11 -5 -8 -10z"/>
<path d="M3610 980 c0 -5 5 -10 11 -10 5 0 7 5 4 10 -3 6 -8 10 -11 10 -2 0
-4 -4 -4 -10z"/>
<path d="M3647 979 c7 -7 15 -10 18 -7 3 3 -2 9 -12 12 -14 6 -15 5 -6 -5z"/>
<path d="M2311 972 c-1 -8 -6 -10 -13 -6 -10 5 -10 4 -1 -6 15 -16 28 -8 20
12 -4 11 -6 11 -6 0z"/>
<path d="M2930 969 c0 -5 5 -7 10 -4 6 3 10 8 10 11 0 2 -4 4 -10 4 -5 0 -10
-5 -10 -11z"/>
<path d="M3316 962 c4 -15 1 -22 -8 -20 -7 2 -14 -7 -16 -20 -2 -12 -8 -20
-13 -17 -5 4 -9 1 -9 -5 0 -21 25 -4 28 18 2 12 7 20 12 17 5 -3 14 4 20 16 7
12 8 19 2 15 -6 -3 -13 0 -16 6 -3 7 -3 3 0 -10z"/>
<path d="M2256 955 c5 -11 2 -14 -10 -9 -9 3 -16 2 -16 -4 0 -13 33 -8 37 5 2
6 -1 14 -6 18 -7 3 -8 0 -5 -10z"/>
<path d="M2355 960 c3 -5 11 -10 16 -10 6 0 7 5 4 10 -3 6 -11 10 -16 10 -6 0
-7 -4 -4 -10z"/>
<path d="M2880 962 c0 -4 9 -8 20 -9 11 -1 20 2 20 5 0 4 -9 8 -20 9 -11 1
-20 -2 -20 -5z"/>
<path d="M3123 964 c7 -7 -31 -45 -63 -62 -16 -9 -26 -10 -28 -3 -2 6 -9 11
-15 11 -7 0 -5 -6 4 -15 20 -20 66 -28 75 -13 5 8 2 9 -9 5 -9 -3 -19 -2 -22
3 -4 6 1 10 9 10 8 0 22 10 30 22 9 12 16 18 16 13 0 -11 20 16 20 28 0 4 -5
7 -12 7 -6 0 -9 -3 -5 -6z"/>
<path d="M3265 960 c3 -5 11 -10 16 -10 6 0 7 5 4 10 -3 6 -11 10 -16 10 -6 0
-7 -4 -4 -10z"/>
<path d="M2120 951 c0 -6 4 -13 10 -16 6 -3 7 1 4 9 -7 18 -14 21 -14 7z"/>
<path d="M2860 955 c0 -14 49 -72 50 -58 0 6 -6 13 -12 16 -7 2 -10 8 -6 12 4
4 15 2 25 -6 14 -12 16 -12 8 0 -6 11 -4 13 8 8 11 -4 14 -2 10 9 -3 8 -10 11
-17 7 -18 -13 -46 -9 -56 7 -5 8 -10 11 -10 5z"/>
<path d="M3010 950 c0 -5 5 -10 11 -10 5 0 7 5 4 10 -3 6 -8 10 -11 10 -2 0
-4 -4 -4 -10z"/>
<path d="M3190 950 c0 -5 9 -14 20 -20 11 -6 20 -9 20 -8 0 2 -9 11 -20 21
-11 9 -20 13 -20 7z"/>
<path d="M2026 942 c-3 -5 1 -9 9 -9 8 0 15 4 15 9 0 4 -4 8 -9 8 -6 0 -12 -4
-15 -8z"/>
<path d="M2275 930 c-4 -12 -4 -24 -1 -27 3 -4 6 2 6 12 0 10 3 15 8 11 4 -4
7 -11 7 -16 0 -4 11 -17 25 -29 21 -17 22 -20 8 -21 -10 0 -18 -5 -18 -10 0
-7 7 -7 20 0 11 6 18 15 15 20 -3 5 3 13 12 19 10 6 13 11 8 11 -6 0 -16 -5
-23 -12 -9 -9 -12 -9 -12 0 0 7 -7 12 -16 12 -8 0 -13 3 -10 8 2 4 -2 15 -9
25 -13 17 -14 17 -20 -3z"/>
<path d="M2340 935 c15 -18 0 -20 -20 -2 -12 10 -12 9 -1 -5 14 -19 63 -19 67
0 1 7 0 8 -3 2 -2 -5 -9 -10 -14 -10 -6 0 -7 5 -3 12 4 7 3 8 -4 4 -7 -4 -12
-2 -12 3 0 6 -5 11 -11 11 -8 0 -8 -5 1 -15z"/>
<path d="M3060 940 c0 -6 7 -10 15 -10 8 0 15 2 15 4 0 2 -7 6 -15 10 -8 3
-15 1 -15 -4z"/>
<path d="M3152 945 c4 -4 0 -14 -10 -21 -16 -12 -16 -14 2 -31 10 -10 16 -13
12 -6 -3 6 -2 14 4 18 6 4 7 11 4 17 -5 7 -1 9 9 5 25 -9 21 0 -5 14 -13 6
-20 8 -16 4z m8 -29 c0 -3 -4 -8 -10 -11 -5 -3 -10 -1 -10 4 0 6 5 11 10 11 6
0 10 -2 10 -4z"/>
<path d="M3430 941 c0 -6 4 -13 10 -16 6 -3 7 1 4 9 -7 18 -14 21 -14 7z"/>
<path d="M3586 942 c-3 -5 1 -9 9 -9 8 0 15 4 15 9 0 4 -4 8 -9 8 -6 0 -12 -4
-15 -8z"/>
<path d="M3670 946 c0 -2 7 -7 16 -10 8 -3 12 -2 9 4 -6 10 -25 14 -25 6z"/>
<path d="M3835 940 c-3 -5 -1 -10 4 -10 6 0 11 5 11 10 0 6 -2 10 -4 10 -3 0
-8 -4 -11 -10z"/>
<path d="M2093 927 c0 -8 6 -14 14 -14 9 0 10 4 2 14 -6 7 -12 13 -14 13 -1 0
-2 -6 -2 -13z"/>
<path d="M2210 925 c0 -8 4 -15 10 -15 5 0 7 7 4 15 -4 8 -8 15 -10 15 -2 0
-4 -7 -4 -15z"/>
<path d="M3411 930 c3 -31 -1 -39 -18 -33 -16 5 -15 4 1 -9 18 -14 18 -15 -4
-21 -12 -3 -19 -10 -15 -16 4 -7 -2 -10 -14 -8 -11 1 -20 -2 -20 -8 0 -5 -10
-13 -23 -17 -22 -7 -22 -7 2 -5 14 1 24 8 23 15 -2 7 6 11 20 9 13 -1 21 3 20
11 -2 6 3 12 10 12 7 0 22 7 33 15 18 14 18 15 0 9 -16 -6 -17 -4 -8 13 7 12
7 24 1 34 -8 12 -10 12 -8 -1z"/>
<path d="M1586 922 c-3 -5 1 -9 9 -9 8 0 12 4 9 9 -3 4 -7 8 -9 8 -2 0 -6 -4
-9 -8z"/>
<path d="M1890 919 c0 -5 5 -7 10 -4 6 3 10 8 10 11 0 2 -4 4 -10 4 -5 0 -10
-5 -10 -11z"/>
<path d="M2161 916 c-9 -10 -8 -15 3 -19 11 -4 13 -1 9 10 -5 12 -3 14 7 8 9
-5 11 -4 6 3 -9 15 -11 15 -25 -2z"/>
<path d="M2859 908 c11 -11 18 -25 15 -30 -3 -4 0 -8 5 -8 6 0 11 2 11 5 0 12
-33 55 -42 55 -5 0 0 -10 11 -22z"/>
<path d="M3020 926 c0 -2 7 -6 15 -10 8 -3 15 -1 15 4 0 6 -7 10 -15 10 -8 0
-15 -2 -15 -4z"/>
<path d="M3319 913 c-13 -17 -13 -17 6 -3 11 8 22 16 24 17 2 2 0 3 -6 3 -6 0
-17 -8 -24 -17z"/>
<path d="M3353 913 c-18 -12 -21 -19 -12 -34 10 -20 29 -17 29 4 0 8 -3 8 -9
-1 -7 -11 -9 -11 -14 2 -4 10 -1 16 8 16 8 0 15 5 15 11 0 5 5 7 12 3 7 -4 8
-3 4 4 -9 14 -6 15 -33 -5z"/>
<path d="M3511 913 c7 -12 15 -20 18 -17 3 2 -3 12 -13 22 -17 16 -18 16 -5
-5z"/>
<path d="M3634 914 c1 -8 4 -15 7 -16 2 -2 3 -1 2 1 -2 2 2 9 7 16 7 8 5 12
-4 12 -8 0 -13 -6 -12 -13z"/>
<path d="M3673 923 c4 -3 1 -13 -6 -22 -11 -14 -10 -14 5 -2 16 12 16 31 1 31
-4 0 -3 -3 0 -7z"/>
<path d="M1313 905 c0 -8 4 -12 9 -9 5 3 6 10 3 15 -9 13 -12 11 -12 -6z"/>
<path d="M1675 910 c-4 -6 -11 -7 -17 -4 -7 4 -8 2 -4 -5 6 -9 11 -9 22 0 14
11 18 19 10 19 -3 0 -8 -5 -11 -10z"/>
<path d="M2236 903 c-6 -14 -5 -15 5 -6 7 7 10 15 7 18 -3 3 -9 -2 -12 -12z"/>
<path d="M2390 905 c-9 -11 -8 -19 4 -37 9 -12 16 -18 16 -12 0 5 -5 15 -12
22 -8 8 -8 15 2 27 7 8 10 15 7 15 -2 0 -10 -7 -17 -15z"/>
<path d="M3184 905 c-10 -8 -14 -15 -8 -15 6 0 17 7 24 15 16 19 9 19 -16 0z"/>
<path d="M1534 902 c4 -3 14 -7 22 -8 9 -1 13 0 10 4 -4 3 -14 7 -22 8 -9 1
-13 0 -10 -4z"/>
<path d="M1815 900 c3 -5 8 -10 11 -10 2 0 4 5 4 10 0 6 -5 10 -11 10 -5 0 -7
-4 -4 -10z"/>
<path d="M1846 898 c3 -5 10 -6 15 -3 13 9 11 12 -6 12 -8 0 -12 -4 -9 -9z"/>
<path d="M2124 899 c-3 -6 2 -18 12 -27 17 -16 17 -16 5 0 -7 9 -10 22 -6 28
3 5 4 10 1 10 -3 0 -8 -5 -12 -11z"/>
<path d="M2820 895 c-19 -22 -8 -25 13 -3 9 10 13 18 8 18 -5 0 -14 -7 -21
-15z"/>
<path d="M2950 900 c8 -5 20 -10 25 -10 6 0 3 5 -5 10 -8 5 -19 10 -25 10 -5
0 -3 -5 5 -10z"/>
<path d="M3110 904 c0 -13 18 -39 24 -34 2 3 -2 14 -10 24 -8 11 -14 16 -14
10z"/>
<path d="M3445 903 c15 -12 15 -43 -1 -43 -8 0 -14 -5 -14 -10 0 -7 6 -7 18
-1 22 12 22 53 1 59 -8 2 -10 0 -4 -5z"/>
<path d="M3496 896 c5 -13 4 -17 -4 -12 -7 4 -12 2 -12 -3 0 -14 17 -14 26 0
3 6 1 16 -5 22 -9 9 -10 7 -5 -7z"/>
<path d="M3793 895 c0 -8 4 -12 9 -9 5 3 6 10 3 15 -9 13 -12 11 -12 -6z"/>
<path d="M2199 898 c-6 -21 -5 -37 2 -32 5 3 7 9 4 14 -3 4 1 11 7 13 10 4 10
6 1 6 -7 1 -13 0 -14 -1z"/>
<path d="M2410 891 c0 -6 4 -13 10 -16 6 -3 7 1 4 9 -7 18 -14 21 -14 7z"/>
<path d="M2910 877 c-24 -35 -33 -54 -17 -34 17 21 30 8 21 -20 -5 -17 -5 -17
6 0 8 13 8 22 1 31 -7 9 -7 16 1 24 6 6 10 14 7 16 -3 3 -11 -5 -19 -17z"/>
<path d="M3564 888 c3 -15 26 -23 26 -8 0 6 -4 9 -9 6 -5 -4 -12 -1 -14 4 -3
6 -4 5 -3 -2z"/>
<path d="M1434 873 c16 -20 36 -23 36 -6 0 4 -3 3 -7 0 -3 -4 -16 1 -27 10
-21 18 -21 18 -2 -4z"/>
<path d="M2036 873 c-6 -14 -5 -15 5 -6 7 7 10 15 7 18 -3 3 -9 -2 -12 -12z"/>
<path d="M2067 879 c7 -7 15 -10 18 -7 3 3 -2 9 -12 12 -14 6 -15 5 -6 -5z"/>
<path d="M2251 885 c4 -3 19 -8 35 -11 16 -3 26 -2 23 1 -4 3 -19 8 -35 11
-16 3 -26 2 -23 -1z"/>
<path d="M2835 880 c-8 -13 4 -32 16 -25 5 4 9 -3 9 -14 0 -12 -6 -20 -12 -18
-7 1 -14 -9 -15 -23 -2 -24 -2 -24 5 -2 4 13 12 23 17 23 6 -1 10 9 10 22 0
12 -5 21 -12 20 -7 -2 -13 1 -13 6 0 5 6 12 13 14 9 4 9 6 0 6 -6 1 -15 -3
-18 -9z"/>
<path d="M2947 873 c5 -12 3 -14 -7 -8 -9 6 -11 4 -6 -4 5 -7 10 -10 14 -7 3
3 11 -2 19 -12 10 -12 9 -8 -2 16 -16 33 -29 45 -18 15z"/>
<path d="M2980 880 c-12 -7 -10 -9 8 -7 12 0 22 5 22 9 0 11 -12 10 -30 -2z"/>
<path d="M3235 880 c-3 -5 -2 -10 4 -10 5 0 13 5 16 10 3 6 2 10 -4 10 -5 0
-13 -4 -16 -10z"/>
<path d="M3290 879 c-13 -9 -12 -10 2 -5 10 3 22 -2 27 -12 12 -19 14 -12 5
12 -7 19 -14 20 -34 5z"/>
<path d="M3535 879 c-4 -6 -5 -12 -2 -15 2 -3 7 2 10 11 7 17 1 20 -8 4z"/>
<path d="M3606 879 c3 -5 9 -7 14 -4 5 3 11 1 15 -5 3 -5 12 -10 18 -10 7 0 3
6 -8 12 -25 15 -47 19 -39 7z"/>
<path d="M3750 878 c0 -6 3 -8 7 -5 3 4 13 1 22 -6 14 -11 14 -10 2 6 -15 20
-31 22 -31 5z"/>
<path d="M2370 861 c10 -20 10 -23 -2 -18 -8 3 -21 1 -29 -4 -9 -5 -5 -7 15
-6 35 3 43 19 20 38 -16 13 -16 12 -4 -10z"/>
<path d="M2595 843 c1 -38 -30 -67 -45 -43 -5 8 -10 8 -14 2 -7 -12 19 -23 37
-16 15 5 62 -40 54 -53 -3 -4 1 -17 9 -28 8 -10 14 -14 14 -9 0 6 -5 15 -12
22 -9 9 -9 12 1 12 7 0 10 4 7 9 -4 5 -1 12 4 14 6 3 5 4 -2 3 -16 -3 -59 34
-52 46 3 4 10 8 15 8 6 0 8 -4 5 -8 -3 -5 11 -17 31 -26 31 -15 35 -15 24 -2
-8 9 -19 16 -27 16 -7 0 -16 9 -19 20 -4 11 -11 18 -16 15 -5 -4 -9 1 -9 10 0
9 4 14 8 11 4 -2 8 3 8 13 0 10 -5 18 -11 18 -7 0 -11 -15 -10 -34z"/>
<path d="M3188 873 c6 -2 18 -2 25 0 6 3 1 5 -13 5 -14 0 -19 -2 -12 -5z"/>
<path d="M1379 868 c-5 -18 -6 -38 -1 -34 7 8 12 36 6 36 -2 0 -4 -1 -5 -2z"/>
<path d="M1615 860 c3 -5 8 -10 11 -10 2 0 4 5 4 10 0 6 -5 10 -11 10 -5 0 -7
-4 -4 -10z"/>
<path d="M1730 859 c0 -5 5 -7 10 -4 6 3 10 8 10 11 0 2 -4 4 -10 4 -5 0 -10
-5 -10 -11z"/>
<path d="M2110 861 c0 -6 4 -13 10 -16 6 -3 7 1 4 9 -7 18 -14 21 -14 7z"/>
<path d="M2216 861 c-3 -4 6 -6 21 -3 19 4 24 2 18 -8 -5 -9 -4 -11 4 -6 6 4
9 12 6 17 -8 11 -42 12 -49 0z"/>
<path d="M3015 861 c-3 -5 0 -13 6 -17 7 -4 9 -3 5 4 -3 5 0 13 6 15 9 4 10 6
1 6 -6 1 -14 -3 -18 -8z"/>
<path d="M3089 849 c-12 -24 3 -50 16 -28 6 8 4 10 -5 4 -10 -6 -12 -4 -7 9 4
10 7 20 7 23 0 3 7 0 15 -7 9 -7 17 -11 20 -9 2 3 -5 10 -15 17 -16 10 -21 9
-31 -9z"/>
<path d="M3150 860 c0 -5 5 -10 10 -10 6 0 10 5 10 10 0 6 -4 10 -10 10 -5 0
-10 -4 -10 -10z"/>
<path d="M3256 861 c-10 -16 2 -46 20 -48 14 -2 15 -1 4 5 -21 10 -26 44 -5
36 8 -3 15 -4 15 -1 0 9 -29 16 -34 8z"/>
<path d="M3550 860 c0 -6 7 -10 15 -10 8 0 15 2 15 4 0 2 -7 6 -15 10 -8 3
-15 1 -15 -4z"/>
<path d="M3837 848 c19 -21 31 -25 14 -5 -6 8 -9 16 -6 19 3 2 -2 5 -10 5 -13
0 -13 -3 2 -19z"/>
<path d="M4016 862 c-3 -4 4 -9 15 -9 23 -2 25 3 4 10 -8 4 -16 3 -19 -1z"/>
<path d="M2276 845 c-3 -8 -1 -15 4 -15 6 0 10 7 10 15 0 8 -2 15 -4 15 -2 0
-6 -7 -10 -15z"/>
<path d="M2993 834 c0 -17 2 -22 7 -13 5 6 6 18 3 26 -8 19 -10 16 -10 -13z"/>
<path d="M3190 850 c-9 -6 -10 -10 -3 -10 6 0 15 5 18 10 8 12 4 12 -15 0z"/>
<path d="M3216 845 c-3 -8 -1 -15 4 -15 6 0 10 7 10 15 0 8 -2 15 -4 15 -2 0
-6 -7 -10 -15z"/>
<path d="M3296 845 c-3 -8 -1 -15 4 -15 6 0 10 7 10 15 0 8 -2 15 -4 15 -2 0
-6 -7 -10 -15z"/>
<path d="M3593 845 c0 -8 4 -12 9 -9 4 3 8 9 8 15 0 5 -4 9 -8 9 -5 0 -9 -7
-9 -15z"/>
<path d="M3733 845 c0 -7 8 -10 19 -7 10 2 18 6 18 7 0 1 -8 5 -18 7 -11 3
-19 0 -19 -7z"/>
<path d="M1836 833 c-6 -14 -5 -15 5 -6 7 7 10 15 7 18 -3 3 -9 -2 -12 -12z"/>
<path d="M2146 838 c3 -5 10 -6 15 -3 13 9 11 12 -6 12 -8 0 -12 -4 -9 -9z"/>
<path d="M2715 840 c-8 -13 4 -32 16 -25 5 4 9 1 9 -4 0 -16 -22 -13 -50 6
-24 16 -24 16 -11 0 19 -24 -4 -22 -29 3 -11 11 -20 16 -20 10 0 -17 46 -41
66 -33 17 6 17 5 5 -10 -9 -11 -10 -17 -2 -17 6 0 11 4 11 9 0 5 9 11 21 14
22 6 21 34 -1 29 -8 -2 -10 3 -7 13 7 17 2 20 -8 5z"/>
<path d="M2753 837 c-3 -6 -1 -7 4 -4 6 4 14 0 17 -9 3 -8 10 -12 16 -9 5 3
10 2 10 -4 0 -5 -6 -12 -12 -14 -10 -4 -10 -6 0 -6 7 -1 10 -6 6 -13 -4 -6 -3
-8 3 -5 15 10 10 53 -6 49 -8 -2 -11 3 -8 11 6 16 -21 19 -30 4z"/>
<path d="M3400 835 c-7 -9 -11 -17 -9 -20 3 -2 10 5 17 15 14 24 10 26 -8 5z"/>
<path d="M3470 840 c0 -5 7 -7 15 -4 8 4 15 8 15 10 0 2 -7 4 -15 4 -8 0 -15
-4 -15 -10z"/>
<path d="M3533 835 c2 -11 9 -19 15 -17 7 1 12 -7 12 -17 0 -11 4 -22 9 -25 5
-4 6 5 3 19 -4 13 -11 24 -17 24 -5 0 -13 8 -17 18 -7 16 -8 16 -5 -2z"/>
<path d="M3636 835 c-9 -26 -7 -32 5 -12 6 10 9 21 6 23 -2 3 -7 -2 -11 -11z"/>
<path d="M3800 846 c0 -2 8 -10 18 -17 15 -13 16 -12 3 4 -13 16 -21 21 -21
13z"/>
<path d="M4070 845 c0 -5 5 -17 10 -25 5 -8 10 -10 10 -5 0 6 -5 17 -10 25 -5
8 -10 11 -10 5z"/>
<path d="M1455 831 c-3 -5 -2 -12 3 -15 5 -3 9 1 9 9 0 17 -3 19 -12 6z"/>
<path d="M2195 829 c-4 -6 -5 -12 -2 -15 2 -3 7 2 10 11 7 17 1 20 -8 4z"/>
<path d="M3150 830 c0 -5 5 -10 11 -10 5 0 7 5 4 10 -3 6 -8 10 -11 10 -2 0
-4 -4 -4 -10z"/>
<path d="M1296 818 c3 -4 11 -5 19 -1 21 7 19 12 -4 10 -11 0 -18 -5 -15 -9z"/>
<path d="M1530 819 c0 -5 5 -7 10 -4 6 3 10 8 10 11 0 2 -4 4 -10 4 -5 0 -10
-5 -10 -11z"/>
<path d="M1770 820 c0 -5 5 -10 11 -10 5 0 7 5 4 10 -3 6 -8 10 -11 10 -2 0
-4 -4 -4 -10z"/>
<path d="M2110 816 c7 -7 13 -7 20 0 6 6 3 10 -10 10 -13 0 -16 -4 -10 -10z"/>
<path d="M2215 821 c-10 -16 15 -23 32 -9 15 11 16 11 10 -4 -3 -10 -2 -18 3
-18 13 0 13 27 1 35 -5 3 -12 1 -16 -5 -3 -5 -11 -10 -16 -10 -6 0 -7 5 -4 10
3 6 4 10 1 10 -3 0 -7 -4 -11 -9z"/>
<path d="M2294 819 c-3 -6 -3 -13 0 -16 3 -4 6 -1 6 6 0 7 5 9 10 6 6 -4 8
-11 5 -16 -4 -5 -1 -9 4 -9 16 0 13 27 -4 33 -8 4 -17 2 -21 -4z"/>
<path d="M2426 814 c-9 -23 -7 -31 4 -14 5 8 13 11 17 6 4 -4 -5 -19 -22 -32
-28 -23 -28 -24 -4 -14 38 17 51 44 29 58 -14 9 -19 8 -24 -4z"/>
<path d="M2935 820 c-3 -6 1 -7 9 -4 18 7 21 14 7 14 -6 0 -13 -4 -16 -10z"/>
<path d="M3405 804 c-21 -32 -19 -45 3 -14 9 14 26 27 36 28 16 3 18 1 8 -10
-9 -12 -9 -15 2 -15 8 0 13 7 11 16 -3 25 -43 21 -60 -5z"/>
<path d="M3494 822 c3 -5 0 -13 -6 -15 -9 -4 -10 -6 -1 -6 17 -1 25 16 12 25
-7 4 -9 3 -5 -4z"/>
<path d="M3655 821 c-9 -15 13 -23 32 -11 15 9 14 10 -6 4 -16 -4 -21 -3 -17
5 4 6 5 11 2 11 -3 0 -7 -4 -11 -9z"/>
<path d="M2890 811 c0 -6 4 -13 10 -16 6 -3 7 1 4 9 -7 18 -14 21 -14 7z"/>
<path d="M3220 816 c0 -2 7 -7 16 -10 8 -3 12 -2 9 4 -6 10 -25 14 -25 6z"/>
<path d="M3849 803 c-13 -16 -12 -17 4 -4 16 13 21 21 13 21 -2 0 -10 -8 -17
-17z"/>
<path d="M1580 806 c0 -2 8 -10 18 -17 15 -13 16 -12 3 4 -13 16 -21 21 -21
13z"/>
<path d="M3050 802 c0 -5 7 -9 15 -9 8 0 12 4 9 9 -3 4 -9 8 -15 8 -5 0 -9 -4
-9 -8z"/>
<path d="M3100 800 c-5 -3 13 -6 40 -6 28 0 50 3 50 6 0 8 -77 8 -90 0z"/>
<path d="M3358 803 c7 -3 16 -2 19 1 4 3 -2 6 -13 5 -11 0 -14 -3 -6 -6z"/>
<path d="M3515 800 c-3 -5 -1 -10 4 -10 6 0 11 5 11 10 0 6 -2 10 -4 10 -3 0
-8 -4 -11 -10z"/>
<path d="M3600 806 c0 -2 7 -7 16 -10 8 -3 12 -2 9 4 -6 10 -25 14 -25 6z"/>
<path d="M3710 800 c0 -5 5 -10 10 -10 6 0 10 5 10 10 0 6 -4 10 -10 10 -5 0
-10 -4 -10 -10z"/>
<path d="M3764 798 c-3 -4 5 -5 17 -3 30 6 36 14 9 12 -12 -1 -24 -5 -26 -9z"/>
<path d="M1435 789 c-4 -6 -5 -12 -2 -15 2 -3 7 2 10 11 7 17 1 20 -8 4z"/>
<path d="M2920 791 c0 -6 4 -13 10 -16 6 -3 7 1 4 9 -7 18 -14 21 -14 7z"/>
<path d="M2994 788 c3 -21 16 -38 29 -38 7 0 4 5 -6 11 -9 6 -15 14 -12 19 3
5 1 11 -4 14 -5 4 -8 0 -7 -6z"/>
<path d="M3270 790 c-9 -6 -10 -10 -3 -10 6 0 15 5 18 10 8 12 4 12 -15 0z"/>
<path d="M3869 783 c-13 -16 -12 -17 4 -4 16 13 21 21 13 21 -2 0 -10 -8 -17
-17z"/>
<path d="M1674 776 c1 -8 5 -18 8 -22 4 -3 5 1 4 10 -1 8 -5 18 -8 22 -4 3 -5
-1 -4 -10z"/>
<path d="M1839 788 c-5 -18 -6 -38 -1 -34 7 8 12 36 6 36 -2 0 -4 -1 -5 -2z"/>
<path d="M1910 780 c0 -5 5 -10 11 -10 5 0 7 5 4 10 -3 6 -8 10 -11 10 -2 0
-4 -4 -4 -10z"/>
<path d="M2016 778 c3 -4 11 -5 19 -1 21 7 19 12 -4 10 -11 0 -18 -5 -15 -9z"/>
<path d="M2275 779 c-19 -9 -19 -9 2 -5 14 2 23 -2 26 -13 4 -14 5 -14 6 1 1
22 -9 28 -34 17z"/>
<path d="M2336 783 c-9 -9 -8 -41 2 -47 4 -2 17 1 29 7 l21 12 -23 17 c-12 9
-25 14 -29 11z m23 -17 c9 -10 8 -15 -4 -20 -10 -4 -15 1 -15 14 0 24 4 25 19
6z"/>
<path d="M2750 780 c0 -6 4 -9 9 -6 5 3 11 -3 14 -14 4 -15 0 -20 -15 -20 -10
0 -17 4 -13 9 9 15 -13 23 -32 11 -15 -9 -14 -10 6 -4 16 4 21 3 17 -5 -9 -13
18 -25 39 -17 11 4 12 11 6 28 -9 24 -31 37 -31 18z"/>
<path d="M2870 780 c0 -5 5 -10 10 -10 6 0 10 5 10 10 0 6 -4 10 -10 10 -5 0
-10 -4 -10 -10z"/>
<path d="M3027 779 c7 -7 15 -10 18 -7 3 3 -2 9 -12 12 -14 6 -15 5 -6 -5z"/>
<path d="M3319 788 c-6 -15 -4 -58 3 -58 4 0 6 11 4 24 -2 14 1 27 7 30 9 3 9
5 0 5 -7 1 -13 0 -14 -1z"/>
<path d="M3415 781 c-3 -5 0 -13 6 -16 5 -4 8 -14 4 -22 -5 -13 -3 -14 10 -3
15 12 15 14 0 22 -8 5 -13 13 -10 19 4 5 4 9 1 9 -3 0 -7 -4 -11 -9z"/>
<path d="M3495 781 c6 -11 4 -13 -10 -7 -18 7 -18 6 0 -14 10 -11 19 -20 20
-20 6 0 -3 41 -10 47 -4 5 -4 2 0 -6z"/>
<path d="M3539 788 c-7 -23 -3 -45 8 -41 9 4 10 9 3 18 -5 6 -7 15 -3 18 3 4
3 7 0 7 -4 0 -7 -1 -8 -2z"/>
<path d="M3595 781 c-3 -5 -2 -12 3 -15 5 -3 9 1 9 9 0 17 -3 19 -12 6z"/>
<path d="M3684 775 c-4 -8 -11 -12 -17 -8 -6 4 -7 1 -3 -6 5 -7 11 -10 14 -7
3 3 10 1 17 -4 8 -7 12 -5 12 5 0 8 -5 11 -10 8 -6 -4 -8 0 -4 10 3 10 4 17 1
17 -2 0 -7 -7 -10 -15z"/>
<path d="M3746 776 c5 -12 4 -17 -3 -13 -5 3 -10 -1 -10 -9 0 -13 2 -13 16 0
12 13 13 18 2 28 -10 11 -11 9 -5 -6z"/>
<path d="M3796 781 c-3 -5 2 -15 12 -22 15 -12 16 -12 5 2 -7 9 -10 19 -6 22
3 4 4 7 0 7 -3 0 -8 -4 -11 -9z"/>
<path d="M3827 779 c7 -7 15 -10 18 -7 3 3 -2 9 -12 12 -14 6 -15 5 -6 -5z"/>
<path d="M3620 772 c0 -6 5 -14 10 -17 6 -4 8 -10 6 -14 -3 -4 1 -8 9 -8 12 0
12 4 -2 21 -10 12 -19 23 -20 25 -2 2 -3 -1 -3 -7z"/>
<path d="M2205 762 c3 -3 19 -7 36 -8 17 -2 28 0 25 3 -3 3 -19 7 -36 8 -17 1
-28 0 -25 -3z"/>
<path d="M2582 750 c12 -19 28 -27 28 -14 0 7 -27 34 -34 34 -4 0 -1 -9 6 -20z"/>
<path d="M2845 760 c3 -5 8 -10 11 -10 2 0 4 5 4 10 0 6 -5 10 -11 10 -5 0 -7
-4 -4 -10z"/>
<path d="M3239 768 c-5 -11 -4 -70 1 -73 4 -2 6 14 6 36 0 33 -3 47 -7 37z"/>
<path d="M4020 766 c0 -2 8 -10 18 -17 15 -13 16 -12 3 4 -13 16 -21 21 -21
13z"/>
<path d="M2155 751 c-3 -5 -2 -12 3 -15 5 -3 9 1 9 9 0 17 -3 19 -12 6z"/>
<path d="M3115 749 c-4 -6 -5 -12 -2 -15 2 -3 7 2 10 11 7 17 1 20 -8 4z"/>
<path d="M3190 756 c0 -2 8 -10 18 -17 15 -13 16 -12 3 4 -13 16 -21 21 -21
13z"/>
<path d="M3391 747 c-8 -10 -7 -14 2 -14 8 0 14 6 14 14 0 7 -1 13 -2 13 -2 0
-8 -6 -14 -13z"/>
<path d="M2053 729 c-2 -23 3 -25 10 -4 4 8 3 16 -1 19 -4 3 -9 -4 -9 -15z"/>
<path d="M2415 740 c-8 -13 5 -13 25 0 13 8 13 10 -2 10 -9 0 -20 -4 -23 -10z"/>
<path d="M2547 736 c-9 -7 -17 -19 -17 -25 0 -7 -4 -9 -10 -6 -5 3 -10 1 -10
-4 0 -18 17 -12 33 12 14 19 18 20 26 7 12 -17 15 -1 3 17 -5 8 -11 8 -25 -1z"/>
<path d="M2667 743 c-10 -10 -8 -33 3 -33 5 0 7 7 4 15 -4 8 -1 15 5 15 6 0
12 -4 12 -10 1 -5 2 -16 3 -22 0 -7 10 -14 21 -15 l20 -3 -20 9 c-11 5 -16 10
-12 10 10 1 -11 41 -22 41 -4 0 -11 -3 -14 -7z"/>
<path d="M2920 735 c-11 -13 -11 -18 0 -28 10 -9 11 -9 6 1 -4 7 -2 19 4 27 7
8 10 15 7 15 -2 0 -10 -7 -17 -15z"/>
<path d="M3276 742 c-3 -5 1 -9 9 -9 8 0 12 4 9 9 -3 4 -7 8 -9 8 -2 0 -6 -4
-9 -8z"/>
<path d="M3563 738 c-14 -18 -12 -45 4 -45 9 0 10 4 2 14 -9 9 -8 17 1 28 7 8
10 15 7 15 -2 0 -9 -6 -14 -12z"/>
<path d="M3590 746 c0 -2 7 -7 16 -10 8 -3 12 -2 9 4 -6 10 -25 14 -25 6z"/>
<path d="M1156 727 c3 -10 9 -15 12 -12 3 3 0 11 -7 18 -10 9 -11 8 -5 -6z"/>
<path d="M2298 728 c-7 -17 15 -19 29 -3 4 4 3 5 -4 2 -6 -4 -13 -2 -15 5 -3
8 -6 6 -10 -4z"/>
<path d="M2390 731 c0 -10 19 -25 25 -20 1 2 -3 10 -11 17 -8 7 -14 8 -14 3z"/>
<path d="M2722 724 c10 -10 20 -16 22 -13 3 3 -5 11 -17 18 -21 13 -21 12 -5
-5z"/>
<path d="M2891 724 c0 -11 3 -14 6 -6 3 7 2 16 -1 19 -3 4 -6 -2 -5 -13z"/>
<path d="M3476 727 c3 -10 9 -15 12 -12 3 3 0 11 -7 18 -10 9 -11 8 -5 -6z"/>
<path d="M1330 721 c0 -6 4 -13 10 -16 6 -3 7 1 4 9 -7 18 -14 21 -14 7z"/>
<path d="M2360 720 c-9 -6 -10 -10 -3 -10 6 0 15 5 18 10 8 12 4 12 -15 0z"/>
<path d="M2780 720 c-9 -6 -10 -10 -3 -10 6 0 15 5 18 10 8 12 4 12 -15 0z"/>
<path d="M3004 722 c4 -3 14 -7 22 -8 9 -1 13 0 10 4 -4 3 -14 7 -22 8 -9 1
-13 0 -10 -4z"/>
<path d="M3680 720 c-12 -7 -10 -9 7 -7 12 0 19 5 17 9 -6 10 -6 10 -24 -2z"/>
<path d="M3850 719 c0 -5 5 -7 10 -4 6 3 10 8 10 11 0 2 -4 4 -10 4 -5 0 -10
-5 -10 -11z"/>
<path d="M2592 708 c2 -9 -6 -24 -17 -33 -11 -9 -14 -13 -6 -9 7 4 23 7 35 8
11 1 21 7 21 14 0 6 -4 12 -9 11 -5 0 -13 5 -18 13 -7 10 -8 9 -6 -4z m28 -18
c0 -5 -5 -10 -11 -10 -5 0 -7 5 -4 10 3 6 8 10 11 10 2 0 4 -4 4 -10z"/>
<path d="M2136 702 c-3 -5 1 -9 9 -9 8 0 12 4 9 9 -3 4 -7 8 -9 8 -2 0 -6 -4
-9 -8z"/>
<path d="M2170 699 c0 -5 5 -7 10 -4 6 3 10 8 10 11 0 2 -4 4 -10 4 -5 0 -10
-5 -10 -11z"/>
<path d="M2331 703 c3 -20 -2 -23 -23 -13 -21 10 -21 10 -6 -3 11 -9 14 -17 8
-23 -6 -6 -3 -10 9 -10 11 0 17 4 14 9 -2 4 0 14 7 22 8 9 8 15 0 20 -6 4 -10
3 -9 -2z"/>
<path d="M2433 684 c0 -17 2 -22 7 -13 5 6 6 18 3 26 -8 19 -10 16 -10 -13z"/>
<path d="M2554 701 c3 -5 -1 -12 -10 -15 -8 -3 -12 -10 -9 -16 3 -5 -3 -10
-14 -10 -12 0 -20 6 -18 13 1 6 -4 12 -12 12 -8 0 -15 -6 -17 -13 -1 -7 0 -8
3 -2 7 14 23 12 21 -2 -2 -8 7 -13 20 -13 12 0 22 5 23 10 0 6 10 15 21 21 18
10 18 12 4 17 -10 4 -15 3 -12 -2z"/>
<path d="M2945 699 c-3 -4 2 -6 10 -5 21 3 28 13 10 13 -9 0 -18 -4 -20 -8z"/>
<path d="M2750 689 c0 -5 5 -7 10 -4 6 3 10 8 10 11 0 2 -4 4 -10 4 -5 0 -10
-5 -10 -11z"/>
<path d="M2855 690 c-3 -6 -17 -8 -30 -6 -14 3 -27 1 -29 -3 -3 -3 12 -7 33
-7 25 0 38 4 38 13 0 16 -4 16 -12 3z"/>
<path d="M2388 683 c6 -2 18 -2 25 0 6 3 1 5 -13 5 -14 0 -19 -2 -12 -5z"/>
<path d="M2660 686 c0 -2 7 -6 15 -10 8 -3 15 -1 15 4 0 6 -7 10 -15 10 -8 0
-15 -2 -15 -4z"/>
<path d="M2999 673 c-13 -16 -12 -17 4 -4 16 13 21 21 13 21 -2 0 -10 -8 -17
-17z"/>
<path d="M3650 679 c0 -5 5 -7 10 -4 6 3 10 8 10 11 0 2 -4 4 -10 4 -5 0 -10
-5 -10 -11z"/>
<path d="M2273 665 c0 -8 4 -12 9 -9 5 3 6 10 3 15 -9 13 -12 11 -12 -6z"/>
<path d="M2635 669 c-4 -6 -5 -12 -2 -15 2 -3 7 2 10 11 7 17 1 20 -8 4z"/>
<path d="M2707 669 c-14 -8 -16 -14 -6 -25 6 -8 17 -14 23 -14 6 0 2 6 -8 12
-18 10 -18 11 5 24 13 7 20 13 14 13 -5 0 -18 -4 -28 -10z"/>
<path d="M2651 652 c-7 -14 -6 -19 4 -19 7 0 11 7 7 15 -4 11 -1 13 8 7 9 -5
11 -4 6 3 -10 16 -14 15 -25 -6z"/>
<path d="M2910 659 c0 -5 5 -7 10 -4 6 3 10 8 10 11 0 2 -4 4 -10 4 -5 0 -10
-5 -10 -11z"/>
<path d="M3173 649 c-2 -23 3 -25 10 -4 4 8 3 16 -1 19 -4 3 -9 -4 -9 -15z"/>
<path d="M3415 660 c3 -5 8 -10 11 -10 2 0 4 5 4 10 0 6 -5 10 -11 10 -5 0 -7
-4 -4 -10z"/>
<path d="M3535 660 c3 -5 8 -10 11 -10 2 0 4 5 4 10 0 6 -5 10 -11 10 -5 0 -7
-4 -4 -10z"/>
<path d="M3726 662 c-3 -5 1 -9 9 -9 8 0 12 4 9 9 -3 4 -7 8 -9 8 -2 0 -6 -4
-9 -8z"/>
<path d="M3776 658 c3 -4 11 -5 19 -1 21 7 19 12 -4 10 -11 0 -18 -5 -15 -9z"/>
<path d="M2590 645 c0 -8 4 -15 10 -15 5 0 7 7 4 15 -4 8 -8 15 -10 15 -2 0
-4 -7 -4 -15z"/>
<path d="M2236 638 c3 -5 10 -6 15 -3 13 9 11 12 -6 12 -8 0 -12 -4 -9 -9z"/>
<path d="M2370 638 c0 -6 3 -8 7 -5 3 4 13 1 22 -6 14 -11 14 -10 2 6 -15 20
-31 22 -31 5z"/>
<path d="M2450 640 c0 -5 5 -10 10 -10 6 0 10 5 10 10 0 6 -4 10 -10 10 -5 0
-10 -4 -10 -10z"/>
<path d="M2550 639 c0 -5 5 -7 10 -4 6 3 10 8 10 11 0 2 -4 4 -10 4 -5 0 -10
-5 -10 -11z"/>
<path d="M2770 641 c0 -6 4 -13 10 -16 6 -3 7 1 4 9 -7 18 -14 21 -14 7z"/>
<path d="M2510 636 c0 -3 9 -10 20 -16 11 -6 20 -8 20 -6 0 3 -9 10 -20 16
-11 6 -20 8 -20 6z"/>
<path d="M2475 620 c-3 -5 -3 -10 1 -10 4 0 -1 -7 -12 -16 -18 -14 -18 -15 4
-4 13 6 20 16 16 22 -5 8 -1 9 10 5 10 -4 15 -3 11 3 -8 13 -22 13 -30 0z"/>
<path d="M2564 618 c-4 -6 -3 -8 4 -4 6 3 13 -3 17 -14 3 -11 11 -20 16 -20 5
0 2 11 -7 25 -19 29 -20 29 -30 13z"/>
<path d="M2615 619 c-4 -6 -5 -12 -2 -15 2 -3 7 2 10 11 7 17 1 20 -8 4z"/>
<path d="M2679 628 c-5 -18 -6 -39 -2 -34 4 3 11 2 17 -4 8 -6 12 -3 12 9 0
12 -5 17 -15 13 -9 -3 -12 -1 -7 6 4 7 5 12 2 12 -3 0 -6 -1 -7 -2z"/>
<path d="M2910 625 c0 -7 30 -13 34 -7 3 4 -4 9 -15 9 -10 1 -19 0 -19 -2z"/>
<path d="M2990 623 c0 -6 8 -17 18 -24 16 -13 16 -13 2 6 -8 11 -16 22 -17 24
-2 2 -3 0 -3 -6z"/>
<path d="M2635 610 c-3 -6 1 -7 9 -4 18 7 21 14 7 14 -6 0 -13 -4 -16 -10z"/>
<path d="M2330 601 c0 -6 4 -12 8 -15 5 -3 9 1 9 9 0 8 -4 15 -9 15 -4 0 -8
-4 -8 -9z"/>
<path d="M2526 597 c3 -10 9 -15 12 -12 3 3 0 11 -7 18 -10 9 -11 8 -5 -6z"/>
<path d="M2755 600 c-3 -5 -1 -10 4 -10 6 0 11 5 11 10 0 6 -2 10 -4 10 -3 0
-8 -4 -11 -10z"/>
<path d="M3180 606 c0 -2 8 -10 18 -17 15 -13 16 -12 3 4 -13 16 -21 21 -21
13z"/>
<path d="M2390 578 c0 -4 4 -8 9 -8 6 0 12 4 15 8 3 5 -1 9 -9 9 -8 0 -15 -4
-15 -9z"/>
<path d="M2550 585 c0 -5 5 -17 10 -25 5 -8 10 -10 10 -5 0 6 -5 17 -10 25 -5
8 -10 11 -10 5z"/>
<path d="M2855 580 c3 -5 8 -10 11 -10 2 0 4 5 4 10 0 6 -5 10 -11 10 -5 0 -7
-4 -4 -10z"/>
<path d="M2893 575 c0 -8 4 -12 9 -9 5 3 6 10 3 15 -9 13 -12 11 -12 -6z"/>
<path d="M2635 570 c-3 -5 -3 -10 2 -10 4 0 2 -4 -5 -9 -11 -6 -9 -10 7 -14
17 -4 19 -2 11 13 -5 9 -6 20 -3 24 3 3 4 6 0 6 -3 0 -9 -4 -12 -10z"/>
<path d="M2733 566 c0 -15 22 -15 34 0 4 5 4 6 -1 2 -5 -4 -14 -3 -21 2 -8 7
-12 5 -12 -4z"/>
<path d="M3115 569 c-4 -6 -5 -12 -2 -15 2 -3 7 2 10 11 7 17 1 20 -8 4z"/>
<path d="M2450 561 c0 -6 4 -13 10 -16 6 -3 7 1 4 9 -7 18 -14 21 -14 7z"/>
<path d="M2599 548 c-5 -18 -6 -38 -1 -34 7 8 12 36 6 36 -2 0 -4 -1 -5 -2z"/>
<path d="M2493 526 c0 -14 50 -17 63 -4 4 4 -4 5 -16 3 -13 -3 -29 0 -35 5 -8
7 -12 5 -12 -4z"/>
<path d="M2684 522 c23 -26 23 -26 23 -7 0 8 -3 13 -5 10 -3 -3 -12 1 -21 7
-10 8 -9 4 3 -10z"/>
<path d="M2619 513 c-13 -16 -12 -17 4 -4 9 7 17 15 17 17 0 8 -8 3 -21 -13z"/>
<path d="M2350 499 c0 -5 5 -7 10 -4 6 3 10 8 10 11 0 2 -4 4 -10 4 -5 0 -10
-5 -10 -11z"/>
<path d="M2556 502 c-3 -5 1 -9 9 -9 8 0 12 4 9 9 -3 4 -7 8 -9 8 -2 0 -6 -4
-9 -8z"/>
<path d="M2639 493 c-13 -16 -12 -17 4 -4 16 13 21 21 13 21 -2 0 -10 -8 -17
-17z"/>
<path d="M2499 488 c15 -21 31 -23 31 -6 0 6 -3 8 -7 5 -3 -4 -13 -1 -22 6
-14 11 -14 10 -2 -5z"/>
<path d="M2610 481 c0 -6 4 -13 10 -16 6 -3 7 1 4 9 -7 18 -14 21 -14 7z"/>
<path d="M2716 473 c-6 -14 -5 -15 5 -6 7 7 10 15 7 18 -3 3 -9 -2 -12 -12z"/>
<path d="M2920 480 c-9 -6 -10 -10 -3 -10 6 0 15 5 18 10 8 12 4 12 -15 0z"/>
<path d="M2415 460 c3 -5 8 -10 11 -10 2 0 4 5 4 10 0 6 -5 10 -11 10 -5 0 -7
-4 -4 -10z"/>
<path d="M2509 443 c-13 -16 -12 -17 4 -4 16 13 21 21 13 21 -2 0 -10 -8 -17
-17z"/>
<path d="M2415 419 c-3 -4 2 -6 10 -5 21 3 28 13 10 13 -9 0 -18 -4 -20 -8z"/>
<path d="M2433 375 c0 -8 4 -12 9 -9 5 3 6 10 3 15 -9 13 -12 11 -12 -6z"/>
<path d="M2570 379 c0 -5 5 -7 10 -4 6 3 10 8 10 11 0 2 -4 4 -10 4 -5 0 -10
-5 -10 -11z"/>
<path d="M2610 360 c0 -5 5 -10 11 -10 5 0 7 5 4 10 -3 6 -8 10 -11 10 -2 0
-4 -4 -4 -10z"/>
<path d="M2656 362 c-3 -5 1 -9 9 -9 8 0 12 4 9 9 -3 4 -7 8 -9 8 -2 0 -6 -4
-9 -8z"/>
</g>
</svg>
